<svg xmlns="http://www.w3.org/2000/svg" width="24" height="24" viewBox="0 0 24 24" fill="none">
<path d="M11.9999 22.35C10.5499 22.35 9.19574 22.0792 7.9374 21.5375C6.67907 20.9958 5.58324 20.2583 4.6499 19.325C3.71657 18.3917 2.98324 17.2917 2.4499 16.025C1.91657 14.7583 1.6499 13.4 1.6499 11.95C1.6499 10.5 1.91657 9.15 2.4499 7.9C2.98324 6.65 3.71657 5.55833 4.6499 4.625C5.58324 3.69167 6.67907 2.95833 7.9374 2.425C9.19574 1.89167 10.5499 1.625 11.9999 1.625C13.4499 1.625 14.8041 1.89167 16.0624 2.425C17.3207 2.95833 18.4166 3.69167 19.3499 4.625C20.2832 5.55833 21.0207 6.65 21.5624 7.9C22.1041 9.15 22.3749 10.5 22.3749 11.95C22.3749 13.4 22.1041 14.7583 21.5624 16.025C21.0207 17.2917 20.2832 18.3917 19.3499 19.325C18.4166 20.2583 17.3207 20.9958 16.0624 21.5375C14.8041 22.0792 13.4499 22.35 11.9999 22.35ZM11.9749 20.425C12.5416 19.8417 13.0166 19.1667 13.3999 18.4C13.7832 17.6333 14.1082 16.7167 14.3749 15.65H9.6499C9.88323 16.65 10.1916 17.5458 10.5749 18.3375C10.9582 19.1292 11.4249 19.825 11.9749 20.425ZM9.8999 20.125C9.48324 19.525 9.12907 18.8583 8.8374 18.125C8.54574 17.3917 8.2999 16.5667 8.0999 15.65H4.4249C5.0249 16.8333 5.7374 17.7542 6.5624 18.4125C7.3874 19.0708 8.4999 19.6417 9.8999 20.125ZM14.0999 20.1C15.2832 19.7333 16.3457 19.1708 17.2874 18.4125C18.2291 17.6542 18.9916 16.7333 19.5749 15.65H15.9249C15.7082 16.55 15.4541 17.3667 15.1624 18.1C14.8707 18.8333 14.5166 19.5 14.0999 20.1ZM3.9249 14.2H7.8249C7.7749 13.75 7.74574 13.3458 7.7374 12.9875C7.72907 12.6292 7.7249 12.2833 7.7249 11.95C7.7249 11.5333 7.73324 11.1667 7.7499 10.85C7.76657 10.5333 7.7999 10.175 7.8499 9.775H3.9249C3.80824 10.175 3.72907 10.5292 3.6874 10.8375C3.64574 11.1458 3.6249 11.5167 3.6249 11.95C3.6249 12.3667 3.64574 12.7458 3.6874 13.0875C3.72907 13.4292 3.80824 13.8 3.9249 14.2ZM9.3749 14.2H14.6499C14.6999 13.6833 14.7332 13.2625 14.7499 12.9375C14.7666 12.6125 14.7749 12.2833 14.7749 11.95C14.7749 11.6167 14.7666 11.3 14.7499 11C14.7332 10.7 14.6999 10.2917 14.6499 9.775H9.3749C9.30824 10.2917 9.26657 10.7 9.2499 11C9.23324 11.3 9.2249 11.6167 9.2249 11.95C9.2249 12.2833 9.23324 12.6125 9.2499 12.9375C9.26657 13.2625 9.30824 13.6833 9.3749 14.2ZM16.1499 14.2H20.0499C20.1666 13.8 20.2457 13.4292 20.2874 13.0875C20.3291 12.7458 20.3499 12.3667 20.3499 11.95C20.3499 11.5167 20.3291 11.1458 20.2874 10.8375C20.2457 10.5292 20.1666 10.175 20.0499 9.775H16.1749L16.2499 11.1125C16.2666 11.4042 16.2749 11.6833 16.2749 11.95C16.2749 12.3 16.2624 12.6375 16.2374 12.9625C16.2124 13.2875 16.1832 13.7 16.1499 14.2ZM15.8999 8.3H19.5749C19.0249 7.16667 18.2791 6.22083 17.3374 5.4625C16.3957 4.70417 15.3082 4.175 14.0749 3.875C14.4916 4.475 14.8457 5.12917 15.1374 5.8375C15.4291 6.54583 15.6832 7.36667 15.8999 8.3ZM9.6499 8.3H14.3999C14.2166 7.43333 13.9082 6.5875 13.4749 5.7625C13.0416 4.9375 12.5416 4.225 11.9749 3.625C11.4749 4.05833 11.0457 4.6375 10.6874 5.3625C10.3291 6.0875 9.98324 7.06667 9.6499 8.3ZM4.4249 8.3H8.1249C8.30824 7.41667 8.5374 6.625 8.8124 5.925C9.0874 5.225 9.44157 4.55 9.8749 3.9C8.64157 4.2 7.5624 4.72083 6.6374 5.4625C5.7124 6.20417 4.9749 7.15 4.4249 8.3Z" fill="#001D33"/>
</svg>